<svg xmlns="http://www.w3.org/2000/svg" viewBox="0 0 36 35.99"><g id="Layer_2" data-name="Layer 2"><g id="Layer_1-2" data-name="Layer 1"><path d="M36,18.23A17.87,17.87,0,0,1,17.65,36,18,18,0,1,1,36,18.23ZM21.08,6.28c-4.41-.1-6.25,1.8-6.4,6.48,0,1.41.55,3.33-2.06,2.93-1.83-.27-2.23.6-2.2,2.28s.29,2.64,2.17,2.33,2.19.65,2.12,2.28c-.12,2.46,0,4.93,0,7.4,0,.62-.18,1.25.76,1.56,2.52.84,4.06-.17,4.06-2.81,0-1.81,0-3.61,0-5.42s-.36-3.37,2.51-3.1c2.21.2,1.24-2.12,1.65-3.29.49-1.37-.74-1.22-1.55-1.21-1.45,0-2.84.27-2.65-2.08.16-1.94.43-3.53,2.77-3.36,1.66.12,1.76-.63,1.85-2C24.26,5.6,22.3,6.52,21.08,6.28Z" style="fill:#ffe200"/></g></g></svg>