<svg xmlns="http://www.w3.org/2000/svg" viewBox="0 0 36 36"><g id="Layer_2" data-name="Layer 2"><g id="Layer_1-2" data-name="Layer 1"><path d="M17.94,36A17.88,17.88,0,0,1,0,18.1,18,18,0,1,1,17.94,36Zm.22-6.48v0h4c4.76,0,7.37-2.51,7.39-7.25,0-3,.06-6.08,0-9.12-.12-4-2.35-6.41-6.34-6.57-3.51-.15-7-.15-10.55,0a6.07,6.07,0,0,0-6.11,6.23c-.11,3.51-.13,7,0,10.54a6.15,6.15,0,0,0,6.22,6.14C14.54,29.59,16.35,29.52,18.16,29.52Z" style="fill:#ffe200"/><path d="M17.89,27.47c-1.62,0-3.23.05-4.84,0-3-.11-4.47-1.65-4.53-4.66,0-3.22-.06-6.44,0-9.66.07-3,1.6-4.52,4.62-4.58,3.31-.08,6.63-.09,10,0,2.79.08,4.3,1.66,4.36,4.51.07,3.22.06,6.44,0,9.66s-1.54,4.62-4.75,4.72C21.11,27.51,19.5,27.47,17.89,27.47Zm-6.07-9.6c-.08,3.12,2.91,6.66,5.72,6.76,3.22.13,6.67-3.18,6.73-6.46A6.34,6.34,0,0,0,18,11.78,6.21,6.21,0,0,0,11.82,17.87Zm13.61-6a1.21,1.21,0,0,0-1.24-1.23,1.11,1.11,0,0,0-1.28,1.17,1.19,1.19,0,0,0,1.21,1.28C24.92,13.16,25.28,12.65,25.43,11.9Z" style="fill:#ffe200"/><path d="M14.28,17.91c.18-2.65,1.48-4,3.59-3.81,2.65.27,4.41,2,4.31,4.12-.12,2.47-2.68,4-4.55,3.92C15.38,22,14.12,20.35,14.28,17.91Z" style="fill:#ffe200"/></g></g></svg>