<svg xmlns="http://www.w3.org/2000/svg" viewBox="0 0 36 35.98"><g id="Layer_2" data-name="Layer 2"><g id="Layer_1-2" data-name="Layer 1"><path d="M17.74,36A18,18,0,1,1,36,18.39,17.91,17.91,0,0,1,17.74,36ZM8,25.67c9,4.41,18.47-.82,19.37-10.45a2.9,2.9,0,0,1,.82-2.28c1.1-1-.33-1.84-.32-2.8-1.44,1.06-2.45-.27-3.63-.65-2.62-.84-5.57.58-5.87,3.3-.28,2.52-1.5,2.07-3,1.66C12.71,13.76,10.77,12,8.16,10c.15,3.21-.36,6.14,1,8.21,1.21,1.89.66,5.24,4.42,5.25C11.76,25.24,9.77,25,8,25.67Z" style="fill:#ffe200"/></g></g></svg>